<svg width="24" height="25" viewBox="0 0 24 25" fill="none" xmlns="http://www.w3.org/2000/svg">
<g clip-path="url(#clip0_114_3)">
<path d="M17.084 16.3119C18.0244 15.3183 18.653 14.0709 18.8922 12.7239C19.1314 11.3769 18.9706 9.98932 18.4297 8.7327C17.8888 7.47609 16.9916 6.4055 15.8489 5.65328C14.7062 4.90106 13.3681 4.50017 12 4.50017C10.6319 4.50017 9.29384 4.90106 8.15112 5.65328C7.00841 6.4055 6.11117 7.47609 5.5703 8.7327C5.02943 9.98932 4.86863 11.3769 5.1078 12.7239C5.34696 14.0709 5.9756 15.3183 6.916 16.3119C7.45567 15.4508 8.20536 14.7409 9.09467 14.249C9.98398 13.7571 10.9837 13.4994 12 13.4999C13.0163 13.4994 14.016 13.7571 14.9053 14.249C15.7946 14.7409 16.5443 15.4508 17.084 16.3119ZM8.385 17.7849L12 21.3989L15.615 17.7849C15.2908 17.1005 14.779 16.5221 14.139 16.1172C13.4991 15.7122 12.7573 15.4972 12 15.4972C11.2427 15.4972 10.5009 15.7122 9.86096 16.1172C9.22101 16.5221 8.70919 17.1005 8.385 17.7849ZM12 24.2279L5.636 17.8639C4.37734 16.6052 3.52019 15.0016 3.17293 13.2558C2.82567 11.5099 3.00391 9.70035 3.6851 8.05582C4.36629 6.41129 5.51984 5.00569 6.99988 4.01677C8.47992 3.02784 10.22 2.5 12 2.5C13.78 2.5 15.5201 3.02784 17.0001 4.01677C18.4802 5.00569 19.6337 6.41129 20.3149 8.05582C20.9961 9.70035 21.1743 11.5099 20.8271 13.2558C20.4798 15.0016 19.6227 16.6052 18.364 17.8639L12 24.2279ZM12 10.4999C12.2652 10.4999 12.5196 10.3946 12.7071 10.207C12.8946 10.0195 13 9.76514 13 9.49992C13 9.23471 12.8946 8.98035 12.7071 8.79282C12.5196 8.60528 12.2652 8.49992 12 8.49992C11.7348 8.49992 11.4804 8.60528 11.2929 8.79282C11.1054 8.98035 11 9.23471 11 9.49992C11 9.76514 11.1054 10.0195 11.2929 10.207C11.4804 10.3946 11.7348 10.4999 12 10.4999ZM12 12.4999C11.2044 12.4999 10.4413 12.1839 9.87868 11.6212C9.31607 11.0586 9 10.2956 9 9.49992C9 8.70427 9.31607 7.94121 9.87868 7.3786C10.4413 6.81599 11.2044 6.49992 12 6.49992C12.7957 6.49992 13.5587 6.81599 14.1213 7.3786C14.6839 7.94121 15 8.70427 15 9.49992C15 10.2956 14.6839 11.0586 14.1213 11.6212C13.5587 12.1839 12.7957 12.4999 12 12.4999Z" fill="#4C75D7"/>
</g>
<defs>
<clipPath id="clip0_114_3">
<rect width="24" height="24" fill="white" transform="translate(0 0.5)"/>
</clipPath>
</defs>
</svg>
