<svg width="24" height="25" viewBox="0 0 24 25" fill="none" xmlns="http://www.w3.org/2000/svg">
<g clip-path="url(#clip0_114_88)">
<path d="M21 19.5H23V21.5H1V19.5H3V4.5C3 4.23478 3.10536 3.98043 3.29289 3.79289C3.48043 3.60536 3.73478 3.5 4 3.5H14C14.2652 3.5 14.5196 3.60536 14.7071 3.79289C14.8946 3.98043 15 4.23478 15 4.5V19.5H19V11.5H17V9.5H20C20.2652 9.5 20.5196 9.60536 20.7071 9.79289C20.8946 9.98043 21 10.2348 21 10.5V19.5ZM5 5.5V19.5H13V5.5H5ZM7 11.5H11V13.5H7V11.5ZM7 7.5H11V9.5H7V7.5Z" fill="#5984F5"/>
</g>
<defs>
<clipPath id="clip0_114_88">
<rect width="24" height="24" fill="white" transform="translate(0 0.5)"/>
</clipPath>
</defs>
</svg>
