<svg width="98" height="96" viewBox="0 0 98 96" fill="none" xmlns="http://www.w3.org/2000/svg">
<rect width="98" height="96" rx="8" fill="url(#paint0_linear_1_5213)" fill-opacity="0.08"/>
<g clip-path="url(#clip0_1_5213)">
<path d="M53.6875 66.54C47.8406 66.54 42.4031 64.0545 38.7141 59.709C38.2437 59.763 37.7656 59.79 37.2812 59.79C30.5094 59.79 25 54.501 25 48C25 41.499 30.5094 36.21 37.2812 36.21C37.7656 36.21 38.2437 36.237 38.7141 36.2895C42.4031 31.9455 47.8422 29.46 53.6875 29.46C64.3359 29.46 73 37.776 73 48C73 58.224 64.3359 66.54 53.6875 66.54ZM54.25 57.54V65.424C57.0984 65.067 59.5859 62.013 61.0641 57.54H54.25ZM46.3266 57.54C47.85 62.088 50.4 65.0595 53.125 65.4225V57.54H46.3266ZM40 59.499C42.5812 62.334 45.9844 64.257 49.7422 65.0505C47.8422 63.54 46.2281 60.9435 45.1469 57.54H44.4906C43.1672 58.464 41.6453 59.1405 40 59.499ZM62.2516 57.54C61.2 60.87 59.6047 63.4995 57.6766 65.0355C62.3578 64.026 66.3625 61.278 68.9125 57.54H62.2516ZM28.0969 54.072C30.1109 56.8725 33.4766 58.71 37.2812 58.71C41.0859 58.71 44.4516 56.8725 46.4656 54.0735C43.9109 53.0925 42.1859 50.6895 42.1859 48C42.1859 45.312 43.9109 42.909 46.4656 41.9265C44.4516 39.1275 41.0859 37.29 37.2812 37.29C33.4766 37.29 30.1109 39.129 28.0953 41.928C30.6484 42.9105 32.3734 45.312 32.3734 48C32.3734 50.6865 30.6484 53.0895 28.0969 54.072ZM62.5672 56.46H69.5937C70.9625 54.1005 71.775 51.4065 71.8672 48.54H63.6219C63.5797 51.4035 63.2047 54.087 62.5672 56.46ZM54.25 56.46H61.3937C62.0562 54.1005 62.4516 51.4065 62.4953 48.54H54.25V56.46ZM45.9937 56.46H53.125V48.54H49.55C49.4062 51.5775 48.0594 54.3195 45.9578 56.337C45.9703 56.3775 45.9812 56.418 45.9937 56.46ZM47.0687 42.8625C44.8359 43.635 43.3109 45.69 43.3109 48C43.3109 50.31 44.8359 52.365 47.0687 53.1375C47.9406 51.6105 48.4375 49.86 48.4375 48C48.4375 46.14 47.9406 44.388 47.0687 42.8625ZM27.4937 42.864C26.6219 44.3895 26.125 46.14 26.125 48C26.125 49.86 26.6219 51.6105 27.4937 53.1375C29.725 52.362 31.2484 50.307 31.2484 48C31.2484 45.6915 29.725 43.6365 27.4937 42.864ZM63.6203 47.46H71.8656C71.7734 44.5935 70.9609 41.8995 69.5922 39.54H62.5656C63.2047 41.9145 63.5797 44.5965 63.6203 47.46ZM54.25 47.46H62.4953C62.4516 44.5935 62.0562 41.8995 61.3937 39.54H54.25V47.46ZM49.55 47.46H53.125V39.54H45.9937C45.9828 39.5805 45.9703 39.6225 45.9594 39.6645C48.0594 41.6805 49.4062 44.4225 49.55 47.46ZM62.2516 38.46H68.9141C66.3625 34.7205 62.3594 31.9725 57.6781 30.963C59.6047 32.5005 61.2016 35.13 62.2516 38.46ZM54.25 38.46H61.0641C59.5859 33.987 57.0984 30.9315 54.25 30.5745V38.46ZM46.3266 38.46H53.125V30.5775C50.4 30.939 47.85 33.9105 46.3266 38.46ZM44.4906 38.46H45.1469C46.2297 35.0565 47.8437 32.46 49.7422 30.9495C45.9844 31.743 42.5812 33.666 40 36.501C41.6453 36.8595 43.1672 37.536 44.4906 38.46ZM37.8437 54H36.7188V42H37.8437V54Z" fill="white"/>
</g>
<defs>
<linearGradient id="paint0_linear_1_5213" x1="0" y1="0" x2="129" y2="137.5" gradientUnits="userSpaceOnUse">
<stop stop-color="white"/>
<stop offset="1" stop-color="white" stop-opacity="0"/>
</linearGradient>
<clipPath id="clip0_1_5213">
<rect width="50" height="48" fill="white" transform="translate(24 24)"/>
</clipPath>
</defs>
</svg>
