<svg width="98" height="96" viewBox="0 0 98 96" fill="none" xmlns="http://www.w3.org/2000/svg">
<rect width="98" height="96" rx="8" fill="url(#paint0_linear_1_5240)" fill-opacity="0.08"/>
<path fill-rule="evenodd" clip-rule="evenodd" d="M30.25 69H44.3125C46.0359 69 47.4375 67.6545 47.4375 66V65.25C47.4375 64.8352 47.0883 64.5 46.6562 64.5H45.875V56.25C45.875 55.8353 45.5258 55.5 45.0938 55.5H29.4688C29.0367 55.5 28.6875 55.8353 28.6875 56.25V64.5H27.9062C27.4742 64.5 27.125 64.8352 27.125 65.25V66C27.125 67.6545 28.5266 69 30.25 69ZM30.25 57H44.3125V64.5H30.25V57ZM45.875 66C45.875 66.8273 45.1742 67.5 44.3125 67.5H30.25C29.3883 67.5 28.6875 66.8273 28.6875 66H45.875Z" fill="white"/>
<path fill-rule="evenodd" clip-rule="evenodd" d="M66.9688 55.5H51.3438C50.9117 55.5 50.5625 55.8353 50.5625 56.25V64.5H49.7812C49.3492 64.5 49 64.8352 49 65.25V66C49 67.6545 50.4016 69 52.125 69H66.1875C67.9109 69 69.3125 67.6545 69.3125 66V65.25C69.3125 64.8352 68.9633 64.5 68.5312 64.5H67.75V56.25C67.75 55.8353 67.4008 55.5 66.9688 55.5ZM52.125 57H66.1875V64.5H52.125V57ZM66.1875 67.5H52.125C51.2633 67.5 50.5625 66.8273 50.5625 66H67.75C67.75 66.8273 67.0492 67.5 66.1875 67.5Z" fill="white"/>
<path fill-rule="evenodd" clip-rule="evenodd" d="M36.5 48.75V53.25C36.5 53.6648 36.8492 54 37.2812 54C37.7133 54 38.0625 53.6648 38.0625 53.25V49.5H58.375V53.25C58.375 53.6648 58.7242 54 59.1562 54C59.5883 54 59.9375 53.6648 59.9375 53.25V48.75C59.9375 48.336 59.5883 48 59.1562 48H49V44.25C49 43.836 48.6508 43.5 48.2188 43.5C47.7867 43.5 47.4375 43.836 47.4375 44.25V48H37.2812C36.8492 48 36.5 48.336 36.5 48.75Z" fill="white"/>
<path fill-rule="evenodd" clip-rule="evenodd" d="M52.3852 42C55.6883 42 58.375 39.4208 58.375 36.2498C58.375 33.0788 55.6883 30.4995 52.3852 30.4995C52.0133 30.4995 51.6453 30.5317 51.2828 30.597C50.3703 29.2897 48.8477 28.5 47.1773 28.5C44.6961 28.5 42.6359 30.2625 42.282 32.5515C39.8977 32.8905 38.0625 34.8682 38.0625 37.2502C38.0625 39.8693 40.282 42 43.0102 42H52.3852ZM39.625 37.2502C39.625 35.4585 41.143 34.0005 43.0102 34.0005C43.4422 34.0005 43.7914 33.6645 43.7914 33.2505C43.7914 31.458 45.3102 30.0008 47.1773 30.0008C48.4648 30.0008 49.625 30.6878 50.2039 31.794C50.3734 32.118 50.7609 32.2808 51.1227 32.1758C51.5312 32.0595 51.9563 32.001 52.3852 32.001C54.8266 32.001 56.8125 33.9075 56.8125 36.2512C56.8125 38.595 54.8266 40.5015 52.3852 40.5015H43.0102C41.143 40.5 39.625 39.042 39.625 37.2502Z" fill="white"/>
<defs>
<linearGradient id="paint0_linear_1_5240" x1="0" y1="0" x2="129" y2="137.5" gradientUnits="userSpaceOnUse">
<stop stop-color="white"/>
<stop offset="1" stop-color="white" stop-opacity="0"/>
</linearGradient>
</defs>
</svg>
