<svg width="308" height="308" viewBox="0 0 308 308" fill="none" xmlns="http://www.w3.org/2000/svg">
<g filter="url(#filter0_d_1_5333)">
<rect x="4" width="300" height="300" rx="150" fill="white" fill-opacity="0.01" shape-rendering="crispEdges"/>
<path d="M148.761 70.0431C148.416 70.0743 147.322 70.1838 146.336 70.262C123.611 72.3106 102.325 84.5707 88.8426 103.414C81.3353 113.892 76.5337 125.777 74.7195 138.365C74.0782 142.76 74 144.058 74 150.016C74 155.974 74.0782 157.272 74.7195 161.666C79.0674 191.707 100.448 216.946 129.445 226.298C134.637 227.971 140.111 229.113 146.336 229.801C148.761 230.066 159.239 230.066 161.664 229.801C172.409 228.612 181.511 225.954 190.489 221.372C191.865 220.668 192.131 220.48 191.943 220.324C191.818 220.23 185.953 212.364 178.915 202.856L166.121 185.576L150.09 161.854C141.269 148.812 134.012 138.146 133.949 138.146C133.887 138.131 133.824 148.671 133.793 161.541C133.746 184.075 133.73 184.982 133.449 185.514C133.042 186.28 132.729 186.593 132.072 186.937C131.572 187.187 131.134 187.234 128.772 187.234H126.066L125.347 186.781C124.878 186.483 124.534 186.092 124.299 185.639L123.971 184.935L124.002 153.581L124.049 122.211L124.534 121.601C124.784 121.273 125.316 120.851 125.691 120.648C126.332 120.335 126.583 120.304 129.288 120.304C132.479 120.304 133.011 120.429 133.84 121.336C134.074 121.586 142.755 134.659 153.14 150.407C163.525 166.154 177.726 187.656 184.702 198.212L197.37 217.4L198.012 216.977C203.689 213.287 209.695 208.033 214.45 202.559C224.569 190.94 231.091 176.772 233.281 161.666C233.922 157.272 234 155.974 234 150.016C234 144.058 233.922 142.76 233.281 138.365C228.933 108.325 207.552 83.0851 178.555 73.7336C173.441 72.076 167.998 70.9344 161.898 70.2464C160.397 70.09 150.059 69.918 148.761 70.0431ZM181.511 118.427C182.262 118.802 182.872 119.522 183.091 120.272C183.216 120.679 183.247 129.374 183.216 148.968L183.169 177.085L178.211 169.485L173.238 161.885V141.446C173.238 128.232 173.3 120.804 173.394 120.444C173.644 119.569 174.192 118.88 174.942 118.474C175.584 118.145 175.818 118.114 178.274 118.114C180.588 118.114 180.995 118.145 181.511 118.427Z" fill="white"/>
<rect x="4.25" y="0.25" width="299.5" height="299.5" rx="149.75" stroke="white" stroke-opacity="0.3" stroke-width="0.5" shape-rendering="crispEdges"/>
</g>
<defs>
<filter id="filter0_d_1_5333" x="0" y="0" width="308" height="308" filterUnits="userSpaceOnUse" color-interpolation-filters="sRGB">
<feFlood flood-opacity="0" result="BackgroundImageFix"/>
<feColorMatrix in="SourceAlpha" type="matrix" values="0 0 0 0 0 0 0 0 0 0 0 0 0 0 0 0 0 0 127 0" result="hardAlpha"/>
<feOffset dy="4"/>
<feGaussianBlur stdDeviation="2"/>
<feComposite in2="hardAlpha" operator="out"/>
<feColorMatrix type="matrix" values="0 0 0 0 0 0 0 0 0 0 0 0 0 0 0 0 0 0 0.25 0"/>
<feBlend mode="normal" in2="BackgroundImageFix" result="effect1_dropShadow_1_5333"/>
<feBlend mode="normal" in="SourceGraphic" in2="effect1_dropShadow_1_5333" result="shape"/>
</filter>
</defs>
</svg>
