<svg width="308" height="308" viewBox="0 0 308 308" fill="none" xmlns="http://www.w3.org/2000/svg">
<g filter="url(#filter0_d_1_5339)">
<rect x="4" width="300" height="300" rx="150" fill="white" fill-opacity="0.01" shape-rendering="crispEdges"/>
<path d="M219.538 135.809C219.538 127.062 208.573 118.772 191.76 113.631C195.64 96.5134 193.916 82.8944 186.318 78.5342C184.566 77.5114 182.519 77.0269 180.283 77.0269V83.029C181.522 83.029 182.519 83.2712 183.354 83.7287C187.018 85.8281 188.608 93.8219 187.368 104.103C187.072 106.633 186.587 109.298 185.995 112.016C180.713 110.724 174.948 109.729 168.886 109.083C165.249 104.103 161.476 99.5816 157.677 95.6252C166.461 87.4699 174.706 83.002 180.31 83.002V77C172.9 77 163.201 82.2753 153.394 91.4264C143.586 82.3292 133.887 77.1077 126.478 77.1077V83.1097C132.055 83.1097 140.326 87.5507 149.11 95.6521C145.337 99.6086 141.565 104.103 137.982 109.083C131.893 109.729 126.127 110.724 120.846 112.043C120.226 109.352 119.769 106.741 119.445 104.238C118.179 93.9564 119.741 85.9627 123.379 83.8364C124.187 83.3519 125.238 83.1366 126.478 83.1366V77.1346C124.214 77.1346 122.166 77.6191 120.389 78.6418C112.817 83.002 111.12 96.5941 115.027 113.658C98.2681 118.826 87.3562 127.089 87.3562 135.809C87.3562 144.557 98.322 152.847 115.134 157.987C111.254 175.105 112.979 188.724 120.577 193.084C122.328 194.107 124.376 194.591 126.639 194.591C134.048 194.591 143.748 189.316 153.555 180.165C163.362 189.262 173.062 194.484 180.471 194.484C182.734 194.484 184.782 194 186.56 192.976C194.131 188.616 195.829 175.024 191.922 157.96C208.626 152.819 219.538 144.53 219.538 135.809ZM184.459 117.857C183.462 121.329 182.223 124.908 180.821 128.488C179.717 126.335 178.558 124.182 177.292 122.029C176.053 119.876 174.732 117.776 173.412 115.731C177.238 116.296 180.929 116.996 184.459 117.857ZM172.118 146.521C170.017 150.155 167.862 153.6 165.626 156.803C161.611 157.153 157.543 157.341 153.447 157.341C149.379 157.341 145.31 157.153 141.323 156.83C139.087 153.627 136.904 150.209 134.803 146.602C132.755 143.076 130.896 139.496 129.198 135.89C130.869 132.283 132.755 128.676 134.776 125.151C136.878 121.518 139.033 118.072 141.269 114.869C145.284 114.519 149.352 114.331 153.447 114.331C157.516 114.331 161.584 114.519 165.571 114.842C167.808 118.045 169.991 121.463 172.092 125.07C174.14 128.596 175.998 132.176 177.696 135.782C175.998 139.389 174.14 142.996 172.118 146.521ZM180.821 143.023C182.236 146.53 183.477 150.105 184.54 153.734C181.01 154.596 177.292 155.323 173.439 155.888C174.759 153.816 176.079 151.689 177.319 149.509C178.558 147.356 179.717 145.175 180.821 143.023ZM153.501 171.741C150.995 169.157 148.49 166.277 146.011 163.128C148.436 163.236 150.915 163.316 153.42 163.316C155.953 163.316 158.459 163.263 160.911 163.128C158.598 166.13 156.124 169.005 153.501 171.741ZM133.456 155.888C129.63 155.323 125.938 154.623 122.409 153.761C123.406 150.289 124.646 146.71 126.046 143.13C127.151 145.283 128.31 147.437 129.576 149.589C130.842 151.743 132.135 153.842 133.456 155.888ZM153.367 99.8777C155.872 102.462 158.378 105.341 160.857 108.49C158.432 108.383 155.953 108.302 153.447 108.302C150.915 108.302 148.409 108.356 145.957 108.49C148.27 105.488 150.743 102.613 153.367 99.8777ZM133.428 115.731C132.108 117.803 130.788 119.929 129.549 122.109C128.31 124.263 127.151 126.416 126.046 128.569C124.632 125.061 123.391 121.486 122.328 117.857C125.858 117.023 129.576 116.296 133.428 115.731ZM109.045 149.428C99.5075 145.364 93.3375 140.035 93.3375 135.809C93.3375 131.583 99.5075 126.228 109.045 122.19C111.362 121.194 113.895 120.306 116.509 119.472C118.044 124.747 120.065 130.238 122.571 135.863C120.092 141.461 118.098 146.925 116.589 152.174C113.922 151.339 111.389 150.424 109.045 149.428ZM123.541 187.89C119.876 185.79 118.286 177.797 119.526 167.515C119.823 164.985 120.307 162.32 120.9 159.602C126.181 160.894 131.947 161.89 138.009 162.536C141.646 167.515 145.418 172.036 149.217 175.993C140.434 184.149 132.189 188.616 126.585 188.616C125.373 188.59 124.349 188.347 123.541 187.89ZM187.45 167.381C188.715 177.662 187.153 185.656 183.515 187.782C182.708 188.266 181.657 188.482 180.417 188.482C174.84 188.482 166.569 184.041 157.785 175.939C161.557 171.983 165.329 167.488 168.913 162.509C175.002 161.863 180.768 160.867 186.048 159.548C186.668 162.267 187.153 164.877 187.45 167.381ZM197.822 149.428C195.505 150.424 192.972 151.312 190.359 152.147C188.823 146.871 186.803 141.381 184.297 135.755C186.776 130.157 188.77 124.693 190.278 119.445C192.946 120.279 195.478 121.194 197.849 122.19C207.387 126.254 213.557 131.583 213.557 135.809C213.53 140.035 207.36 145.391 197.822 149.428Z" fill="white"/>
<path d="M153.42 148.109C160.221 148.109 165.733 142.603 165.733 135.809C165.733 129.016 160.221 123.509 153.42 123.509C146.62 123.509 141.107 129.016 141.107 135.809C141.107 142.603 146.62 148.109 153.42 148.109ZM93.3583 215.769H89.2937V222.762H87V205.476H92.7284C94.6775 205.476 96.175 205.92 97.2208 206.806C98.2746 207.692 98.8015 208.982 98.8015 210.676C98.8015 211.753 98.5083 212.69 97.922 213.49C97.3436 214.289 96.5355 214.887 95.4976 215.283L99.5621 222.62V222.762H97.1139L93.3583 215.769ZM89.2937 213.906H92.7998C93.9328 213.906 94.832 213.612 95.4976 213.027C96.171 212.441 96.5077 211.658 96.5077 210.676C96.5077 209.608 96.1868 208.789 95.5451 208.219C94.9112 207.649 93.9922 207.36 92.7878 207.352H89.2937V213.906ZM107.002 223C105.259 223 103.841 222.43 102.747 221.29C101.654 220.142 101.107 218.611 101.107 216.696V216.292C101.107 215.018 101.349 213.882 101.832 212.885C102.323 211.879 103.005 211.095 103.876 210.534C104.756 209.964 105.706 209.679 106.729 209.679C108.401 209.679 109.7 210.229 110.627 211.329C111.554 212.429 112.017 214.004 112.017 216.054V216.968H103.306C103.337 218.235 103.706 219.26 104.411 220.044C105.124 220.819 106.027 221.207 107.121 221.207C107.897 221.207 108.555 221.049 109.093 220.732C109.633 220.416 110.104 219.996 110.508 219.474L111.851 220.519C110.773 222.172 109.157 223 107.002 223ZM106.729 211.484C105.841 211.484 105.096 211.808 104.494 212.457C103.892 213.098 103.52 214.001 103.377 215.164H109.819V214.998C109.755 213.882 109.454 213.019 108.916 212.409C108.376 211.792 107.647 211.484 106.729 211.484ZM122.512 222.762C122.384 222.509 122.281 222.058 122.203 221.409C121.18 222.469 119.96 223 118.542 223C117.274 223 116.233 222.644 115.416 221.931C114.608 221.211 114.204 220.301 114.204 219.201C114.204 217.863 114.711 216.826 115.725 216.09C116.747 215.346 118.182 214.974 120.028 214.974H122.167V213.965C122.167 213.197 121.937 212.587 121.478 212.137C121.018 211.677 120.34 211.448 119.445 211.448C118.661 211.448 118.003 211.646 117.473 212.042C116.942 212.437 116.676 212.916 116.676 213.478H114.466C114.466 212.837 114.692 212.22 115.143 211.626C115.602 211.024 116.221 210.55 116.997 210.201C117.782 209.853 118.641 209.679 119.576 209.679C121.058 209.679 122.218 210.051 123.058 210.795C123.898 211.531 124.333 212.548 124.365 213.846V219.758C124.365 220.938 124.516 221.876 124.817 222.572V222.762H122.512ZM118.863 221.089C119.552 221.089 120.206 220.91 120.824 220.554C121.442 220.198 121.889 219.735 122.167 219.165V216.53H120.443C117.75 216.53 116.403 217.317 116.403 218.892C116.403 219.58 116.633 220.119 117.092 220.507C117.551 220.894 118.142 221.089 118.863 221.089ZM132.97 221.207C133.754 221.207 134.44 220.969 135.026 220.494C135.612 220.02 135.937 219.426 136 218.714H138.081C138.041 219.45 137.787 220.15 137.32 220.815C136.852 221.48 136.226 222.011 135.442 222.406C134.665 222.802 133.842 223 132.97 223C131.219 223 129.824 222.418 128.786 221.255C127.757 220.083 127.242 218.484 127.242 216.458V216.09C127.242 214.84 127.471 213.727 127.931 212.754C128.391 211.78 129.048 211.024 129.904 210.486C130.767 209.948 131.785 209.679 132.958 209.679C134.4 209.679 135.597 210.11 136.547 210.973C137.506 211.836 138.017 212.956 138.081 214.333H136C135.937 213.502 135.62 212.821 135.05 212.291C134.488 211.753 133.79 211.484 132.958 211.484C131.841 211.484 130.973 211.887 130.355 212.695C129.745 213.494 129.44 214.654 129.44 216.173V216.589C129.44 218.068 129.745 219.208 130.355 220.008C130.965 220.807 131.837 221.207 132.97 221.207ZM143.535 206.806V209.916H145.936V211.614H143.535V219.58C143.535 220.095 143.643 220.482 143.857 220.744C144.07 220.997 144.435 221.124 144.95 221.124C145.203 221.124 145.552 221.076 145.995 220.981V222.762C145.417 222.921 144.855 223 144.308 223C143.326 223 142.585 222.703 142.085 222.109C141.586 221.516 141.337 220.673 141.337 219.58V211.614H138.995V209.916H141.337V206.806H143.535ZM168.196 222.762H165.902L157.191 209.442V222.762H154.897V205.476H157.191L165.926 218.856V205.476H168.196V222.762ZM179.843 222.762C179.716 222.509 179.613 222.058 179.534 221.409C178.512 222.469 177.292 223 175.874 223C174.606 223 173.564 222.644 172.748 221.931C171.94 221.211 171.536 220.301 171.536 219.201C171.536 217.863 172.043 216.826 173.057 216.09C174.079 215.346 175.513 214.974 177.359 214.974H179.499V213.965C179.499 213.197 179.269 212.587 178.809 212.137C178.35 211.677 177.672 211.448 176.777 211.448C175.992 211.448 175.335 211.646 174.804 212.042C174.274 212.437 174.008 212.916 174.008 213.478H171.797C171.797 212.837 172.023 212.22 172.475 211.626C172.934 211.024 173.552 210.55 174.329 210.201C175.113 209.853 175.972 209.679 176.908 209.679C178.389 209.679 179.55 210.051 180.39 210.795C181.23 211.531 181.665 212.548 181.697 213.846V219.758C181.697 220.938 181.848 221.876 182.149 222.572V222.762H179.843ZM176.195 221.089C176.884 221.089 177.538 220.91 178.156 220.554C178.773 220.198 179.221 219.735 179.499 219.165V216.53H177.775C175.081 216.53 173.734 217.317 173.734 218.892C173.734 219.58 173.964 220.119 174.424 220.507C174.883 220.894 175.474 221.089 176.195 221.089ZM188.127 206.806V209.916H190.528V211.614H188.127V219.58C188.127 220.095 188.234 220.482 188.448 220.744C188.662 220.997 189.026 221.124 189.541 221.124C189.794 221.124 190.143 221.076 190.587 220.981V222.762C190.008 222.921 189.446 223 188.899 223C187.917 223 187.176 222.703 186.677 222.109C186.178 221.516 185.928 220.673 185.928 219.58V211.614H183.587V209.916H185.928V206.806H188.127ZM195.496 222.762H193.297V209.916H195.496V222.762ZM193.118 206.509C193.118 206.153 193.225 205.852 193.439 205.607C193.661 205.361 193.986 205.239 194.414 205.239C194.842 205.239 195.167 205.361 195.388 205.607C195.61 205.852 195.721 206.153 195.721 206.509C195.721 206.865 195.61 207.162 195.388 207.4C195.167 207.637 194.842 207.756 194.414 207.756C193.986 207.756 193.661 207.637 193.439 207.4C193.225 207.162 193.118 206.865 193.118 206.509ZM203.268 219.783L206.453 209.916H208.699L204.088 222.762H202.412L197.754 209.916H200L203.268 219.783ZM215.984 223C214.241 223 212.823 222.43 211.73 221.29C210.636 220.142 210.09 218.611 210.09 216.696V216.292C210.09 215.018 210.331 213.882 210.815 212.885C211.306 211.879 211.987 211.095 212.859 210.534C213.738 209.964 214.689 209.679 215.711 209.679C217.383 209.679 218.682 210.229 219.609 211.329C220.536 212.429 221 214.004 221 216.054V216.968H212.288C212.32 218.235 212.688 219.26 213.394 220.044C214.107 220.819 215.01 221.207 216.103 221.207C216.88 221.207 217.538 221.049 218.076 220.732C218.615 220.416 219.087 219.996 219.491 219.474L220.834 220.519C219.756 222.172 218.139 223 215.984 223ZM215.711 211.484C214.824 211.484 214.079 211.808 213.477 212.457C212.874 213.098 212.502 214.001 212.36 215.164H218.801V214.998C218.738 213.882 218.436 213.019 217.898 212.409C217.359 211.792 216.63 211.484 215.711 211.484Z" fill="white"/>
<rect x="4.25" y="0.25" width="299.5" height="299.5" rx="149.75" stroke="white" stroke-opacity="0.3" stroke-width="0.5" shape-rendering="crispEdges"/>
</g>
<defs>
<filter id="filter0_d_1_5339" x="0" y="0" width="308" height="308" filterUnits="userSpaceOnUse" color-interpolation-filters="sRGB">
<feFlood flood-opacity="0" result="BackgroundImageFix"/>
<feColorMatrix in="SourceAlpha" type="matrix" values="0 0 0 0 0 0 0 0 0 0 0 0 0 0 0 0 0 0 127 0" result="hardAlpha"/>
<feOffset dy="4"/>
<feGaussianBlur stdDeviation="2"/>
<feComposite in2="hardAlpha" operator="out"/>
<feColorMatrix type="matrix" values="0 0 0 0 0 0 0 0 0 0 0 0 0 0 0 0 0 0 0.25 0"/>
<feBlend mode="normal" in2="BackgroundImageFix" result="effect1_dropShadow_1_5339"/>
<feBlend mode="normal" in="SourceGraphic" in2="effect1_dropShadow_1_5339" result="shape"/>
</filter>
</defs>
</svg>
