<svg width="308" height="308" viewBox="0 0 308 308" fill="none" xmlns="http://www.w3.org/2000/svg">
<g filter="url(#filter0_d_1_5329)">
<rect x="4" width="300" height="300" rx="150" fill="white" fill-opacity="0.01" shape-rendering="crispEdges"/>
<path d="M229 150.017C229 138.859 216.556 128.285 197.477 121.727C201.88 99.8913 199.923 82.5189 191.301 76.957C189.314 75.6523 186.99 75.0343 184.452 75.0343V82.6905C185.859 82.6905 186.99 82.9995 187.938 83.5832C192.096 86.2612 193.9 96.458 192.494 109.573C192.157 112.8 191.607 116.199 190.934 119.667C184.942 118.019 178.399 116.749 171.519 115.925C167.392 109.573 163.111 103.805 158.8 98.7583C168.767 88.3555 178.123 82.6562 184.483 82.6562V75C176.075 75 165.068 81.7292 153.939 93.4024C142.809 81.7979 131.803 75.1373 123.394 75.1373V82.7935C129.723 82.7935 139.11 88.4585 149.077 98.7926C144.797 103.84 140.516 109.573 136.45 115.925C129.54 116.749 122.997 118.019 117.004 119.701C116.301 116.268 115.781 112.938 115.414 109.745C113.977 96.6297 115.751 86.4328 119.878 83.7205C120.796 83.1025 121.988 82.8279 123.394 82.8279V75.1717C120.826 75.1717 118.502 75.7897 116.485 77.0943C107.893 82.6562 105.967 99.9943 110.4 121.761C91.3826 128.353 78.9998 138.893 78.9998 150.017C78.9998 161.175 91.4438 171.75 110.522 178.307C106.12 200.143 108.076 217.515 116.699 223.077C118.686 224.382 121.01 225 123.578 225C131.986 225 142.993 218.271 154.122 206.598C165.251 218.202 176.258 224.863 184.666 224.863C187.235 224.863 189.558 224.245 191.576 222.94C200.168 217.378 202.094 200.04 197.661 178.273C216.617 171.715 229 161.141 229 150.017ZM189.191 127.117C188.06 131.546 186.654 136.112 185.064 140.679C183.81 137.932 182.496 135.185 181.059 132.439C179.652 129.692 178.154 127.014 176.656 124.405C180.997 125.126 185.186 126.019 189.191 127.117ZM175.188 163.682C172.803 168.317 170.357 172.711 167.82 176.797C163.264 177.243 158.647 177.483 154 177.483C149.383 177.483 144.766 177.243 140.241 176.831C137.703 172.745 135.227 168.385 132.842 163.785C130.518 159.287 128.409 154.721 126.482 150.12C128.378 145.52 130.518 140.919 132.811 136.421C135.196 131.786 137.642 127.392 140.18 123.306C144.736 122.86 149.352 122.62 154 122.62C158.617 122.62 163.233 122.86 167.758 123.272C170.296 127.358 172.773 131.718 175.158 136.318C177.481 140.816 179.591 145.382 181.517 149.983C179.591 154.583 177.481 159.184 175.188 163.682ZM185.064 159.218C186.715 163.819 188.121 168.42 189.283 172.883C185.278 173.981 181.059 174.908 176.686 175.629C178.184 172.986 179.683 170.274 181.089 167.493C182.496 164.746 183.81 161.965 185.064 159.218ZM154.061 195.851C151.218 192.555 148.374 188.882 145.561 184.865C148.313 185.002 151.126 185.105 153.969 185.105C156.843 185.105 159.687 185.037 162.469 184.865C159.717 188.882 156.874 192.555 154.061 195.851ZM131.313 175.629C126.972 174.908 122.783 174.016 118.778 172.917C119.909 168.488 121.315 163.922 122.905 159.356C124.159 162.102 125.474 164.849 126.911 167.596C128.348 170.342 129.815 173.02 131.313 175.629ZM153.908 104.183C156.752 107.479 159.595 111.152 162.408 115.169C159.656 115.032 156.843 114.929 154 114.929C151.126 114.929 148.282 114.998 145.5 115.169C148.252 111.152 151.095 107.479 153.908 104.183ZM131.283 124.405C129.785 127.049 128.286 129.761 126.88 132.542C125.474 135.288 124.159 138.035 122.905 140.782C121.254 136.181 119.848 131.58 118.686 127.117C122.691 126.053 126.911 125.126 131.283 124.405ZM103.613 167.39C92.7891 162.205 85.7874 155.407 85.7874 150.017C85.7874 144.627 92.7891 137.795 103.613 132.645C106.242 131.374 109.116 130.241 112.082 129.177C113.825 135.906 116.118 142.91 118.961 150.086C116.148 157.227 113.886 164.197 112.173 170.891C109.147 169.827 106.273 168.66 103.613 167.39ZM120.062 216.451C115.904 213.773 114.1 203.576 115.506 190.461C115.842 187.234 116.393 183.835 117.065 180.367C123.058 182.015 129.601 183.286 136.48 184.11C140.608 190.461 144.889 196.229 149.2 201.276C139.232 211.679 129.876 217.378 123.517 217.378C122.141 217.344 120.979 217.035 120.062 216.451ZM192.585 190.29C194.022 203.405 192.249 213.602 188.121 216.314C187.204 216.932 186.012 217.206 184.605 217.206C178.276 217.206 168.89 211.542 158.922 201.207C163.203 196.16 167.483 190.427 171.55 184.075C178.46 183.251 185.003 181.981 190.995 180.299C191.699 183.766 192.249 187.097 192.585 190.29ZM204.357 167.39C201.727 168.66 198.853 169.793 195.887 170.857C194.145 164.128 191.851 157.124 189.008 149.948C191.821 142.807 194.083 135.838 195.796 129.143C198.822 130.207 201.697 131.374 204.387 132.645C215.211 137.829 222.212 144.627 222.212 150.017C222.182 155.407 215.18 162.24 204.357 167.39Z" fill="white"/>
<path d="M153.97 165.707C161.686 165.707 167.942 158.683 167.942 150.017C167.942 141.352 161.686 134.327 153.97 134.327C146.253 134.327 139.997 141.352 139.997 150.017C139.997 158.683 146.253 165.707 153.97 165.707Z" fill="white"/>
<rect x="4.25" y="0.25" width="299.5" height="299.5" rx="149.75" stroke="white" stroke-opacity="0.3" stroke-width="0.5" shape-rendering="crispEdges"/>
</g>
<defs>
<filter id="filter0_d_1_5329" x="0" y="0" width="308" height="308" filterUnits="userSpaceOnUse" color-interpolation-filters="sRGB">
<feFlood flood-opacity="0" result="BackgroundImageFix"/>
<feColorMatrix in="SourceAlpha" type="matrix" values="0 0 0 0 0 0 0 0 0 0 0 0 0 0 0 0 0 0 127 0" result="hardAlpha"/>
<feOffset dy="4"/>
<feGaussianBlur stdDeviation="2"/>
<feComposite in2="hardAlpha" operator="out"/>
<feColorMatrix type="matrix" values="0 0 0 0 0 0 0 0 0 0 0 0 0 0 0 0 0 0 0.25 0"/>
<feBlend mode="normal" in2="BackgroundImageFix" result="effect1_dropShadow_1_5329"/>
<feBlend mode="normal" in="SourceGraphic" in2="effect1_dropShadow_1_5329" result="shape"/>
</filter>
</defs>
</svg>
